<?xml version="1.0" encoding="UTF-8"?><svg id="_レイヤー_1" xmlns="http://www.w3.org/2000/svg" width="33.841" height="33.841" viewBox="0 0 33.841 33.841"><defs><style>.cls-1{fill:#214a7a;}</style></defs><path class="cls-1" d="M27.793,2.64c-.336-.335-.782-.519-1.257-.519h-.003l-19.276.032c-.981.002-1.779.801-1.777,1.783l.044,26.456c0,.475.187.922.523,1.258.336.335.782.519,1.256.519h.004l19.276-.032c.475,0,.922-.187,1.257-.523.336-.337.52-.784.519-1.26l-.044-26.456c0-.475-.187-.922-.523-1.258ZM27.411,31.185c-.221.222-.516.344-.829.345h0l-19.276.032h-.002c-.313,0-.607-.121-.828-.342-.222-.221-.344-.516-.345-.829l-.044-26.456c-.001-.647.524-1.174,1.172-1.175l19.275-.032h.002c.646,0,1.173.525,1.174,1.172l.044,26.456c0,.313-.121.608-.342.83Z"/><path class="cls-1" d="M25.934,4.234h0l-4.852.008v-.409c0-.08-.033-.158-.09-.214-.057-.057-.134-.089-.214-.089h0l-7.757.013c-.167,0-.303.136-.303.304v.409s-4.851.008-4.851.008c-.08,0-.158.032-.214.089-.057.057-.088.134-.088.215l.041,25.08c0,.08.032.158.089.214.057.057.134.089.214.089h0l18.067-.03c.167,0,.303-.136.303-.304l-.041-25.08c0-.167-.136-.303-.303-.303ZM20.474,4.137l.003,2.175-2.28.004c-.136,0-.254.091-.291.221-.127.451-.539.766-1.002.767h-.001c-.463,0-.875-.314-1.004-.763-.037-.13-.156-.22-.292-.22h0l-2.28.004-.003-2.175,7.151-.012ZM8.21,29.343l-.04-24.474,4.548-.007.003,1.766c0,.08.032.158.089.214.057.057.134.089.214.089h0l2.371-.004c.263.589.853.983,1.507.983h.002c.655,0,1.245-.397,1.506-.988l2.371-.004c.167,0,.303-.136.303-.304l-.003-1.765,4.549-.007.04,24.473-17.461.029Z"/><path class="cls-1" d="M23.214,11.825h-12.586c-.168,0-.303.136-.303.303s.136.303.303.303h12.586c.168,0,.303-.136.303-.303s-.136-.303-.303-.303Z"/><path class="cls-1" d="M23.214,15.433h-12.586c-.168,0-.303.136-.303.303s.136.303.303.303h12.586c.168,0,.303-.136.303-.303s-.136-.303-.303-.303Z"/><path class="cls-1" d="M23.214,19.041h-12.586c-.168,0-.303.136-.303.303s.136.303.303.303h12.586c.168,0,.303-.136.303-.303s-.136-.303-.303-.303Z"/><path class="cls-1" d="M18.368,22.649h-7.74c-.168,0-.303.136-.303.303s.136.303.303.303h7.74c.168,0,.303-.136.303-.303s-.136-.303-.303-.303Z"/></svg>