<?xml version="1.0" encoding="UTF-8"?><svg id="_レイヤー_1" xmlns="http://www.w3.org/2000/svg" width="33.841" height="33.841" viewBox="0 0 33.841 33.841"><defs><style>.cls-1{fill:#214a7a;}</style></defs><path class="cls-1" d="M30.642,8.677h-6.408v-3.327c0-.972-.791-1.763-1.763-1.763h-11.1c-.972,0-1.763.791-1.763,1.763v3.327H3.2c-.972,0-1.763.791-1.763,1.763v18.925c0,.972.791,1.763,1.763,1.763h27.442c.972,0,1.763-.791,1.763-1.763V10.441c0-.972-.791-1.763-1.763-1.763ZM10.238,5.35c0-.624.508-1.132,1.132-1.132h11.1c.624,0,1.132.508,1.132,1.132v3.327h-13.365v-3.327ZM31.774,29.366c0,.624-.508,1.132-1.132,1.132H3.2c-.624,0-1.132-.508-1.132-1.132V10.441c0-.624.508-1.132,1.132-1.132h27.442c.624,0,1.132.508,1.132,1.132v18.925Z"/><path class="cls-1" d="M23.216,17.782h-4.174v-4.174c0-.174-.141-.315-.315-.315h-3.611c-.174,0-.315.141-.315.315v4.174h-4.174c-.174,0-.315.141-.315.315v3.611c0,.174.141.315.315.315h4.174v4.174c0,.174.141.315.315.315h3.611c.174,0,.315-.141.315-.315v-4.174h4.174c.174,0,.315-.141.315-.315v-3.611c0-.174-.141-.315-.315-.315ZM22.9,21.393h-4.174c-.174,0-.315.141-.315.315v4.174h-2.98v-4.174c0-.174-.141-.315-.315-.315h-4.174v-2.98h4.174c.174,0,.315-.141.315-.315v-4.174h2.98v4.174c0,.174.141.315.315.315h4.174v2.98Z"/></svg>