<?xml version="1.0" encoding="UTF-8"?><svg id="_レイヤー_1" xmlns="http://www.w3.org/2000/svg" width="33.841" height="33.841" viewBox="0 0 33.841 33.841"><defs><style>.cls-1{fill:#214a7a;}</style></defs><path class="cls-1" d="M22.743,9.57v-1.444c0-3.21-2.611-5.821-5.821-5.821s-5.821,2.611-5.821,5.821v1.444c-1.013.16-1.79,1.039-1.79,2.096,0,1.109.856,2.022,1.941,2.114.601,2.634,2.942,4.518,5.669,4.518s5.068-1.884,5.669-4.518c1.086-.092,1.941-1.005,1.941-2.114,0-1.057-.777-1.936-1.79-2.096ZM22.408,13.122h-.003c-.009-.001-.058-.006-.068-.007-.154-.007-.315.108-.345.274-.439,2.461-2.571,4.246-5.071,4.246s-4.632-1.786-5.071-4.246c-.028-.159-.167-.274-.327-.274-.006,0-.012,0-.018,0l-.073.009c-.804,0-1.458-.654-1.458-1.457s.654-1.458,1.458-1.458c.018,0,.037-.002.056-.005.295-.05,7.238-1.264,8.844-4.458.082-.164.016-.364-.148-.446-.165-.082-.364-.016-.446.148-1.254,2.495-6.502,3.726-7.974,4.027v-1.348c0-2.843,2.313-5.156,5.156-5.156s5.156,2.313,5.156,5.156v1.75c0,.184.149.332.332.332.803,0,1.457.654,1.457,1.458s-.652,1.456-1.459,1.456Z"/><path class="cls-1" d="M21.887,18.645c-.134-.009-.268.065-.327.189l-2.899,6.143-.466-3.304v-1.846c0-.184-.149-.332-.332-.332h-1.884c-.184,0-.332.149-.332.332v1.884l-.461,3.273-2.906-6.15c-.059-.125-.191-.202-.327-.189-4.393.349-7.834,4.075-7.834,8.481v3.222c0,1.137.925,2.063,2.062,2.063h21.475c1.137,0,2.063-.925,2.063-2.063v-3.222c0-4.407-3.441-8.132-7.834-8.481ZM16.312,20.16h1.219v1.219h-1.219v-1.219ZM16.272,22.043h1.304l.568,4.025-1.22,2.591-1.22-2.583.568-4.034ZM29.056,30.348c0,.771-.627,1.398-1.398,1.398H6.183c-.771,0-1.398-.627-1.398-1.398v-3.222c0-3.986,3.054-7.367,6.994-7.797l4.844,10.252c.055.116.172.19.3.19s.246-.074.3-.191l4.837-10.251c3.94.429,6.995,3.811,6.995,7.797v3.222Z"/><path class="cls-1" d="M26.2,26.682h-2.093v-2.093c0-.184-.149-.332-.332-.332s-.332.149-.332.332v2.093h-2.093c-.184,0-.332.149-.332.332s.149.332.332.332h2.093v2.093c0,.184.149.332.332.332s.332-.149.332-.332v-2.093h2.093c.184,0,.332-.149.332-.332s-.149-.332-.332-.332Z"/></svg>