<?xml version="1.0" encoding="UTF-8"?><svg id="_レイヤー_1" xmlns="http://www.w3.org/2000/svg" width="33.841" height="33.841" viewBox="0 0 33.841 33.841"><defs><style>.cls-1{fill:#214a7a;}</style></defs><path class="cls-1" d="M26.278,6.813c-1.85,0-3.354,1.505-3.354,3.354,0,1.485.971,2.747,2.312,3.186v11.009c0,3.382-2.752,6.134-6.134,6.134-1.924,0-3.699-.877-4.871-2.405-.827-1.078-1.263-2.367-1.263-3.729v-.432c2.589-.431,4.692-2.417,5.252-4.973.059-.272.01-.551-.14-.785-.093-.145-.22-.258-.366-.34l1.797-8.202c.36-1.644-.038-3.339-1.094-4.651-.75-.931-1.762-1.574-2.887-1.872-.058-.545-.516-.973-1.076-.973h-.716c-.6,0-1.088.488-1.088,1.088s.488,1.088,1.088,1.088h.716c.422,0,.785-.244.966-.597.981.271,1.864.836,2.52,1.651.938,1.166,1.293,2.674.973,4.135l-1.797,8.201c-.448.037-.832.363-.931.812-.435,1.985-2.225,3.425-4.258,3.425s-3.823-1.441-4.257-3.425c-.098-.445-.498-.765-.93-.809l-1.798-8.204c-.32-1.462.034-2.969.973-4.135.635-.789,1.482-1.343,2.425-1.624.185.338.539.57.951.57h.717c.6,0,1.088-.488,1.088-1.088s-.488-1.088-1.088-1.088h-.717c-.572,0-1.036.444-1.08,1.005-1.08.311-2.05.939-2.775,1.84-1.055,1.312-1.454,3.007-1.094,4.651l1.797,8.202c-.146.082-.273.195-.366.341-.15.234-.199.513-.14.785.56,2.556,2.663,4.541,5.251,4.972v.432c0,1.824.586,3.553,1.694,4.998,1.57,2.047,3.949,3.221,6.526,3.221,4.532,0,8.219-3.687,8.219-8.219v-11.009c1.34-.44,2.312-1.701,2.312-3.186,0-1.849-1.505-3.354-3.354-3.354ZM14.451,3.697h-.716c-.262,0-.475-.213-.475-.475s.213-.475.475-.475h.716c.262,0,.475.213.475.475s-.213.475-.475.475ZM9.287,2.747h.717c.262,0,.475.213.475.475s-.213.475-.475.475h-.717c-.262,0-.475-.213-.475-.475s.213-.475.475-.475ZM26.707,24.363c0,4.194-3.412,7.606-7.606,7.606-2.385,0-4.586-1.086-6.039-2.981-1.026-1.338-1.568-2.937-1.568-4.625v-.696c0-.152-.111-.281-.261-.303l-.157-.023c-2.386-.357-4.334-2.171-4.848-4.513-.025-.114-.005-.226.058-.324.062-.097.157-.163.272-.188.032-.007.064-.011.096-.011.196,0,.37.143.413.339.496,2.264,2.538,3.907,4.856,3.907s4.361-1.643,4.856-3.907c.05-.228.258-.383.51-.328.115.025.209.09.271.188.063.098.083.21.058.324-.513,2.343-2.462,4.157-4.848,4.514l-.157.023c-.15.022-.261.151-.261.303v.696c0,1.498.481,2.917,1.39,4.102,1.289,1.681,3.242,2.645,5.358,2.645,3.72,0,6.748-3.027,6.748-6.748v-12.602c.138.037.28.064.43.064s.291-.026.429-.063v12.602ZM26.278,11.211c-.576,0-1.044-.469-1.044-1.044s.469-1.044,1.044-1.044,1.044.469,1.044,1.044-.469,1.044-1.044,1.044ZM27.32,12.7v-1.255c.372-.304.615-.761.615-1.278,0-.914-.743-1.657-1.657-1.657s-1.657.743-1.657,1.657c0,.517.242.973.615,1.278v1.255c-.995-.411-1.698-1.39-1.698-2.533,0-1.511,1.23-2.741,2.741-2.741s2.741,1.23,2.741,2.741c0,1.142-.703,2.122-1.699,2.533Z"/></svg>