<svg width="40" height="40" viewBox="0 0 40 40" fill="none" xmlns="http://www.w3.org/2000/svg">
<path d="M26.8922 10.2546L26.8922 10.2546C27.4232 11.9564 28.7122 13.3295 30.387 13.9856C30.6049 14.0709 30.8068 14.1497 30.995 14.2231C33.0928 15.0416 33.4919 15.1973 35.4888 16.4643C37.324 17.6287 38.7394 20.3888 38.9756 23.7132C39.2086 26.9924 38.2684 30.5911 35.6932 33.2918L36.3348 33.9036L35.6932 33.2918C30.5428 38.6932 23.4708 40.4908 15.1557 37.7145C6.6943 34.8894 2.44522 27.3998 1.393 21.503C-0.130354 12.9653 2.89213 4.66469 9.75461 2.13327C14.4406 0.404756 19.9138 0.524162 23.086 3.46554L23.086 3.46557C25.214 5.43856 26.4318 8.77861 26.8922 10.2546Z" fill="#99C2EA" stroke="#3F85BF" stroke-width="2"/>
</svg>
