<?xml version="1.0" encoding="UTF-8"?><svg id="_レイヤー_1" xmlns="http://www.w3.org/2000/svg" width="33.841" height="33.841" viewBox="0 0 33.841 33.841"><defs><style>.cls-1{fill:#214a7a;}</style></defs><path class="cls-1" d="M17.057,9.151c1.911,0,3.467-1.569,3.467-3.499s-1.555-3.487-3.467-3.487-3.466,1.564-3.466,3.487,1.555,3.499,3.466,3.499ZM17.057,2.717c1.607,0,2.915,1.317,2.915,2.935s-1.307,2.947-2.915,2.947-2.914-1.322-2.914-2.947,1.307-2.935,2.914-2.935Z"/><path class="cls-1" d="M27,9.746h-4.513c-.262,0-.484.197-.484.43,0,.357.166.689.472.964-.181.12-.363.261-.544.431l-.146.145c-.111.11-.224.221-.326.332l-.215.222q-.393.409-.825.283c-.142-.042-.318-.093-.54-.149-.051-.013-.103-.027-.154-.04-.935-1.406-2.617-3.005-4.609-3.364-1.195-.215-2.298.047-3.281.777-1.094.799-1.894,2.196-2.378,4.151-.395,1.571-1.28,5.483-.967,7.874.181,1.321.754,2.239,1.734,2.776h-2.881c-.544,0-.986.446-.986.993,0,.554.442,1.004.986,1.004h.401v5.22c0,.548.437.993.975.993.544,0,.986-.446.986-.993v-5.22h4.769v5.22c0,.548.442.993.986.993s.986-.446.986-.993v-5.22h.391c.544,0,.986-.451.986-1.004,0-.159-.041-.308-.107-.442h1.774v5.375c.082.98.549,1.718,1.317,2.078.303.143.635.213.966.212.46,0,.919-.136,1.296-.4.614-.43.924-1.141.851-1.924v-2.704c0-.749.038-1.457.075-2.142.102-1.891.183-3.384-.637-4.25-.449-.474-1.128-.705-2.075-.705h-1.815c.924-.401,1.563-.925,1.935-1.581.453-.8.497-1.787.141-3.005.559-.16.99-.528,1.75-1.225l.743-.684c1.135-1.04,1.293-1.849,1.239-2.332.499-.059.956-.2,1.319-.411.571-.316.886-.762.886-1.257,0-.237-.217-.43-.483-.43ZM9.155,31.796c0,.244-.195.442-.434.442-.233,0-.423-.198-.423-.442v-5.22h.858v5.22ZM15.896,31.796c0,.239-.199.442-.434.442-.239,0-.434-.198-.434-.442v-5.22h.868v5.22ZM17.273,25.572c0,.25-.195.452-.434.452H7.344c-.239,0-.434-.203-.434-.452,0-.244.195-.442.434-.442h9.495c.239,0,.434.198.434.442ZM23.666,13.77l-.742.684c-.818.749-1.17,1.068-1.771,1.156-.069.011-.144.018-.223.022-.013,0-.026.002-.04.003-.078.003-.161.003-.249.001-.031,0-.065-.002-.098-.004-.066-.003-.134-.006-.206-.011-.034-.002-.067-.004-.102-.007-.106-.008-.215-.017-.334-.029-.721-.068-1.374-.133-2.026-.198-.623-.062-1.246-.124-1.929-.189-.154-.011-.286.097-.301.249-.014.152.097.286.249.301.682.064,1.304.126,1.926.188.653.065,1.307.13,2.028.198.466.044.838.069,1.155.046.331,1.097.306,1.961-.078,2.637-.489.863-1.569,1.47-3.298,1.854h-2.997c-.152,0-.276.123-.276.276s.123.276.276.276h6.654c.787,0,1.334.174,1.674.532.657.693.582,2.082.486,3.84-.037.692-.076,1.408-.076,2.172v2.729c.057.615-.162,1.129-.616,1.447-.489.344-1.161.399-1.712.14-.581-.273-.937-.849-.999-1.601v-5.628c0-.152-.123-.276-.276-.276h-2.925s-.002,0-.003,0h-4.521c-2.018-.147-3.03-1.026-3.28-2.85-.212-1.616.137-4.411.955-7.667.452-1.826,1.182-3.118,2.17-3.84.858-.637,1.818-.866,2.856-.679,1.36.245,2.793,1.218,3.866,2.595l-2.779-.717c-.013-.003-.026-.007-.04-.01,0,0-.002,0-.002,0-.072-.018-.146-.006-.207.03-.061.036-.108.094-.127.168-.01.037-.011.074-.006.11.002.015.01.028.015.042.006.02.01.04.021.058.007.012.019.021.029.032.013.016.025.034.041.047.008.006.02.009.029.014.022.013.043.027.069.034,1.278.331,2.545.662,3.815.994.216.054.385.104.522.144.243.071.416.111.558.111.284,0,.451-.158.82-.541l.217-.225c.102-.11.208-.215.313-.318l.142-.142c.226-.211.453-.368.676-.487.485.249,1.091.39,1.734.394.085.503-.294,1.194-1.059,1.895ZM26.326,10.953c-.406.236-.981.371-1.577.371-.602,0-1.167-.132-1.593-.374-.2-.111-.521-.334-.588-.652h4.35c-.067.319-.388.542-.593.655Z"/><path class="cls-1" d="M22.356,8.863c-.152,0-.276.123-.276.276s.123.276.276.276h4.808c.152,0,.276-.123.276-.276s-.123-.276-.276-.276h-4.808Z"/><path class="cls-1" d="M22.488,8.555h4.513c.276,0,.483-.185.483-.431,0-.488-.323-.946-.881-1.254-.495-.287-1.153-.446-1.854-.446-.695,0-1.357.158-1.86.443-.563.311-.885.769-.885,1.257,0,.241.212.431.484.431ZM23.159,7.349c.424-.241.989-.373,1.59-.373.596,0,1.171.135,1.582.374.327.18.534.413.587.652h-4.349c.053-.239.261-.472.59-.654Z"/></svg>