<?xml version="1.0" encoding="UTF-8"?><svg id="_レイヤー_1" xmlns="http://www.w3.org/2000/svg" width="33.841" height="33.841" viewBox="0 0 33.841 33.841"><defs><style>.cls-1{fill:#214a7a;}</style></defs><path class="cls-1" d="M13.138,12.721c-.046-.786-.311-1.531-.797-2.174.528-.702.816-1.548.816-2.407,0-2.228-1.813-4.04-4.04-4.04-4.484,0-7.269,3.393-7.269,8.856s2.785,8.856,7.269,8.856c2.228,0,4.04-1.813,4.04-4.04,0-.873-.281-1.7-.815-2.408.447-.593.705-1.272.781-1.989,1.236.324,2.159,1.439,2.165,2.774l.065,13.729c0,.173.142.313.315.313h.002c.174,0,.314-.142.313-.316l-.065-13.729c-.008-1.678-1.2-3.083-2.779-3.424ZM11.699,15.158c-.1.118-.1.291,0,.409.542.635.829,1.397.829,2.203,0,1.881-1.53,3.411-3.411,3.411-4.896,0-6.64-4.25-6.64-8.226s1.744-8.226,6.64-8.226c1.881,0,3.411,1.53,3.411,3.411,0,.807-.287,1.569-.829,2.203-.1.118-.1.291,0,.409.542.635.829,1.397.829,2.203s-.287,1.568-.829,2.203Z"/><path class="cls-1" d="M24.725,4.099c-2.228,0-4.04,1.813-4.04,4.04,0,.86.288,1.705.816,2.407-.486.643-.751,1.388-.797,2.174-1.578.341-2.771,1.746-2.779,3.424l-.065,13.729c0,.174.139.315.313.316h.002c.173,0,.314-.14.315-.313l.065-13.729c.006-1.335.929-2.45,2.165-2.774.076.717.334,1.396.782,1.989-.534.708-.815,1.535-.815,2.408,0,2.228,1.813,4.04,4.04,4.04,4.484,0,7.269-3.393,7.269-8.856s-2.785-8.856-7.269-8.856ZM24.725,21.181c-1.881,0-3.411-1.53-3.411-3.411,0-.807.287-1.569.829-2.203.1-.118.1-.291,0-.409-.542-.635-.829-1.397-.829-2.203s.287-1.569.829-2.203c.1-.118.1-.291,0-.409-.542-.635-.829-1.397-.829-2.203,0-1.881,1.53-3.411,3.411-3.411,4.896,0,6.64,4.249,6.64,8.226s-1.744,8.226-6.64,8.226Z"/><path class="cls-1" d="M29.792,12.64c-.174,0-.315.141-.315.315,0,1.906-.463,6.339-4.752,6.339-.174,0-.315.141-.315.315s.141.315.315.315c4.857,0,5.382-4.873,5.382-6.968,0-.174-.141-.315-.315-.315Z"/></svg>