<?xml version="1.0" encoding="UTF-8"?><svg id="_レイヤー_1" xmlns="http://www.w3.org/2000/svg" width="33.841" height="33.841" viewBox="0 0 33.841 33.841"><defs><style>.cls-1{fill:#214a7a;}</style></defs><path class="cls-1" d="M14.906,3.68l-5.432,5.432-5.432,5.432c-1.836,1.835-1.836,4.822,0,6.658.918.918,2.123,1.376,3.329,1.376s2.411-.459,3.329-1.377l10.864-10.864c1.836-1.836,1.836-4.822,0-6.658-1.836-1.835-4.823-1.835-6.658,0ZM10.186,20.688c-1.552,1.552-4.078,1.552-5.63,0s-1.552-4.078,0-5.63l5.175-5.175,5.63,5.63-5.175,5.175ZM21.05,9.824l-5.175,5.175-5.63-5.63,5.175-5.175c1.552-1.552,4.077-1.552,5.63,0,1.552,1.552,1.552,4.078,0,5.63Z"/><path class="cls-1" d="M17.829,3.761c-.587.058-1.141.308-1.521.688l-4.233,4.233c-.142.142-.142.372,0,.514.071.071.164.106.257.106s.186-.036.257-.106l4.233-4.233c.501-.501,1.583-.691,2.084-.191.142.142.372.142.514,0s.142-.372,0-.514c-.378-.378-.959-.561-1.591-.497Z"/><path class="cls-1" d="M29.792,10.006c-2.234-1.321-5.127-.581-6.45,1.653l-3.913,6.611-3.913,6.61c-.641,1.082-.822,2.349-.51,3.568.312,1.218,1.08,2.242,2.162,2.882.751.445,1.576.656,2.39.656,1.61,0,3.181-.825,4.059-2.308l7.827-13.221c.641-1.082.822-2.349.51-3.568-.312-1.218-1.08-2.242-2.162-2.882ZM22.992,29.306c-1.119,1.889-3.565,2.516-5.453,1.398-.915-.542-1.565-1.407-1.828-2.437-.264-1.03-.111-2.101.431-3.016l3.728-6.297,3.425,2.028,3.425,2.028-3.728,6.297ZM30.819,16.085l-3.728,6.298-6.85-4.056,3.728-6.298c1.119-1.889,3.567-2.514,5.453-1.398.915.542,1.564,1.407,1.828,2.437.264,1.03.111,2.101-.431,3.016Z"/><path class="cls-1" d="M27.859,11.098c-1-.592-2.417.029-2.967.957l-3.05,5.151c-.102.173-.045.396.128.498.058.034.122.051.185.051.124,0,.245-.064.313-.178l3.049-5.151c.361-.61,1.36-1.063,1.971-.702.173.103.396.046.498-.128.102-.173.045-.396-.128-.498Z"/></svg>