<?xml version="1.0" encoding="UTF-8"?>
<svg xmlns="http://www.w3.org/2000/svg" viewBox="0 0 1128.97 331.03">
  <defs>
    <style>
      .cls-1 {
        fill: #ffddd9;
      }

      .cls-2 {
        stroke-dasharray: 7.96 7.96;
      }

      .cls-2, .cls-3, .cls-4 {
        stroke-miterlimit: 10;
      }

      .cls-2, .cls-4 {
        fill: none;
        stroke: #4d4d4d;
      }

      .cls-5, .cls-3 {
        fill: #fff;
      }

      .cls-3 {
        stroke: #e22020;
      }

      .cls-6 {
        fill: #054b85;
      }

      .cls-7 {
        fill: #333;
      }

      .cls-8 {
        fill: #d0e0f0;
      }
    </style>
  </defs>
  <g id="_レイヤー_2" data-name="レイヤー 2">
    <rect class="cls-5" x=".89" y=".82" width="1127.18" height="329.4" rx="26.42" ry="26.42"/>
  </g>
  <g id="_レイヤー_1" data-name="レイヤー 1">
    <g>
      <line class="cls-4" x1="564.22" y1="20.91" x2="564.22" y2="24.91"/>
      <line class="cls-2" x1="564.22" y1="32.88" x2="564.22" y2="299.69"/>
      <line class="cls-4" x1="564.22" y1="303.68" x2="564.22" y2="307.68"/>
    </g>
    <rect class="cls-8" x="608.04" y="20.7" width="480" height="50" rx="12.66" ry="12.66"/>
    <rect class="cls-1" x="39.18" y="20.7" width="480" height="50" rx="12.66" ry="12.66"/>
    <g>
      <path d="M193.06,36.45c-1.35,1.18-2.9,2.43-4.36,3.44,1.62,1.18,3.41,2.2,5.3,2.94-.91.74-2.06,2.3-2.67,3.34-2.7-1.22-5.13-2.97-7.23-5.1v1.38h-12.43v-1.15c-2.3,2.23-4.93,4.02-7.63,5.33-.54-.88-1.59-2.26-2.4-2.94,1.96-.81,3.92-2.03,5.71-3.48-.95-.95-2.4-2.06-3.61-2.84l2.19-2.2c1.28.74,2.87,1.79,3.82,2.74.98-1.05,1.82-2.2,2.53-3.34h-6.92v-3.24h8.85l.68-.17,2.6,1.35c-.91,2.47-2.23,4.66-3.82,6.58h8.68c-1.86-2.3-3.41-4.93-4.63-7.8l3.44-1.08c.51,1.18,1.08,2.33,1.79,3.41,1.25-1.01,2.5-2.19,3.38-3.21l3.04,2.16c-1.45,1.21-3.14,2.5-4.63,3.51.51.61,1.05,1.18,1.59,1.72,1.38-1.08,2.84-2.4,3.78-3.48l2.94,2.09ZM185.94,54.01c-.71,1.38-1.38,2.7-1.96,3.68h8.48v3.31h-29.04v-3.31h8.17c-.34-1.11-.91-2.46-1.55-3.51l1.76-.44h-3.68v-9.35h19.55v9.35h-3.04l1.32.27ZM171.99,50.56h11.51v-3h-11.51v3ZM174.02,53.74c.74,1.15,1.35,2.57,1.62,3.58l-1.28.37h6.65l-.91-.2c.57-1.01,1.28-2.53,1.76-3.75h-7.83Z"/>
      <path d="M208.8,55.83c1.69-.98,3.92-2.4,6.11-3.85l1.22,3.04c-1.99,1.52-4.15,3.07-6.08,4.39l-1.11-1.92.1.98c-4.19.88-8.64,1.82-12.06,2.47l-.74-3.65c1.42-.2,3.11-.47,4.96-.78v-8.81h-4.59v-3.38h4.59v-2.46h-2.97v-1.52c-.2.2-.44.41-.64.61-.51-.78-1.62-2.09-2.4-2.6,2.84-2.4,4.79-5.57,5.84-8.17h3.31c1.99,1.65,4.46,4.05,5.64,5.81l-2.13,2.53h.3v3.34h-3.48v2.46h4.19v3.38h-4.19v8.17l4.05-.71.07.67ZM199.51,48.97c.54,1.86,1.01,4.25,1.18,5.81l-2.7.74c-.07-1.62-.54-4.05-1.05-5.91l2.57-.64ZM207.08,38.51c-.95-1.38-2.43-3.28-3.85-4.63-.84,1.45-1.92,3.04-3.28,4.63h7.12ZM205.05,54.17c.44-1.49.98-3.88,1.18-5.47l2.9.71c-.61,1.89-1.15,4.05-1.65,5.44l-2.43-.68ZM221.77,50.36c1.42,2.5,3.44,4.86,6.18,6.28-.81.71-1.99,2.26-2.57,3.31-2.4-1.55-4.22-3.98-5.54-6.52v4.42c0,1.69-.24,2.63-1.28,3.17-1.05.57-2.36.64-4.25.64-.1-1.01-.51-2.43-.95-3.48.95.07,1.96.03,2.3.03.37,0,.47-.1.47-.44v-13.24h-6.96v-3.41h11.75v-1.72h-9.39v-3.04h9.39v-1.82h-10.13v-3.31h13.84v9.89h2.5v3.41h-7.29v1.11c.34,1.15.78,2.4,1.38,3.61,1.05-1.15,2.3-2.8,3.04-4.05l3.14,1.92c-1.35,1.55-2.87,3.14-4.05,4.25l-1.59-1.05ZM211.97,45.73c1.35,1.18,2.84,2.97,3.48,4.25l-2.8,1.86c-.57-1.25-2.03-3.11-3.31-4.42l2.63-1.69Z"/>
      <path d="M243.28,35.1c-.2,1.01-.47,2.26-.71,3.48,1.15-.07,2.13-.13,2.84-.13,3.58,0,6.11,1.59,6.11,6.45,0,3.98-.47,9.46-1.92,12.39-1.11,2.36-2.97,3.11-5.54,3.11-1.28,0-2.9-.24-4.05-.47l-.71-4.46c1.28.37,3.24.71,4.12.71,1.15,0,1.99-.34,2.53-1.45.91-1.92,1.38-6.01,1.38-9.35,0-2.7-1.18-3.07-3.28-3.07-.54,0-1.38.07-2.36.14-1.28,5.13-3.78,13.14-6.89,18.1l-4.39-1.76c3.28-4.42,5.61-11.25,6.85-15.87-1.22.13-2.3.27-2.9.34-.98.17-2.74.41-3.78.57l-.41-4.59c1.25.1,2.36.03,3.61,0,1.05-.03,2.63-.13,4.36-.3.47-2.53.78-5,.71-7.12l5.03.51c-.2.88-.44,1.96-.61,2.8ZM257.6,35.64l-1.65.71c2.03,3.14,4.56,8.78,5.5,11.78l-4.29,1.96c-.88-3.75-3.28-9.69-5.67-12.66l3.04-1.32c-.68-1.28-1.52-2.9-2.3-3.99l2.67-1.11c.84,1.25,2.06,3.38,2.7,4.63ZM261.61,34.08l-2.67,1.15c-.71-1.38-1.79-3.38-2.74-4.66l2.7-1.08c.88,1.28,2.13,3.41,2.7,4.59Z"/>
      <path d="M282.25,33.81c-.03.34-.03.84-.03,1.38,2.77-.13,5.57-.41,8.54-.91l-.03,3.88c-2.23.27-5.3.57-8.58.74v3.48c3.41-.17,6.28-.44,9.02-.81l-.03,3.99c-3.04.34-5.67.57-8.91.67.07,1.28.14,2.67.24,4.02,4.25,1.22,7.5,3.48,9.46,5.1l-2.43,3.78c-1.82-1.69-4.12-3.48-6.82-4.69.03.47.03.88.03,1.25,0,2.87-2.19,5.1-6.65,5.1-5.4,0-8.24-2.06-8.24-5.64s3.14-5.81,8.34-5.81c.71,0,1.42.03,2.09.1-.07-1.05-.1-2.13-.14-3.14h-1.76c-1.96,0-5.81-.17-8.04-.44l-.03-3.98c2.19.4,6.35.64,8.14.64h1.62c0-1.12,0-2.33.03-3.48h-1.25c-2.13,0-6.04-.3-8.27-.61l-.1-3.85c2.43.41,6.28.74,8.34.74h1.32v-1.59c0-.64-.07-1.69-.2-2.33h4.56c-.1.68-.17,1.52-.2,2.4ZM275.43,56.98c1.79,0,2.97-.51,2.97-2.46,0-.37,0-.84-.03-1.45-.91-.13-1.82-.24-2.77-.24-2.4,0-3.71.95-3.71,2.09,0,1.28,1.22,2.06,3.55,2.06Z"/>
      <path d="M310.31,35.37c-.07.37-.17.81-.27,1.25,1.89-.27,3.82-.64,5.67-1.08v4.22c-2.03.47-4.32.84-6.58,1.11-.3,1.45-.64,2.97-1.01,4.36-1.25,4.73-3.48,11.62-5.37,15.63l-4.69-1.59c2.03-3.41,4.59-10.47,5.84-15.2.24-.91.47-1.89.71-2.84-.78.03-1.52.07-2.23.07-1.65,0-2.9-.07-4.09-.14l-.1-4.22c1.72.2,2.84.27,4.25.27.98,0,1.99-.03,3.04-.1.13-.74.24-1.38.3-1.92.14-1.25.2-2.63.1-3.44l5.17.41c-.27.95-.61,2.46-.74,3.21ZM314.4,53.67c0,1.49,1.01,2.6,4.63,2.6,2.26,0,4.59-.24,7.02-.68l-.17,4.29c-1.92.27-4.19.51-6.89.51-5.67,0-8.75-1.96-8.75-5.37,0-1.59.3-3.21.57-4.52l4.05.37c-.27.98-.47,2.06-.47,2.8ZM319.53,42.05c1.92,0,3.95.1,5.94.3l-.1,4.05c-1.69-.2-3.75-.44-5.81-.44-2.33,0-4.39.1-6.52.37v-3.95c1.89-.2,4.29-.34,6.48-.34ZM324.53,37.76l-2.7,1.18c-.68-1.38-1.72-3.41-2.63-4.69l2.67-1.11c.84,1.25,2.06,3.38,2.67,4.63ZM328.58,36.21l-2.67,1.15c-.71-1.42-1.79-3.38-2.74-4.66l2.67-1.08c.91,1.25,2.16,3.41,2.73,4.59Z"/>
      <path d="M348.27,60.32l-2.53-4.02c1.28-.13,2.23-.34,3.14-.54,4.32-1.01,7.7-4.12,7.7-9.05,0-4.66-2.53-8.14-7.09-8.91-.47,2.87-1.05,5.98-2.03,9.15-2.03,6.82-4.93,11.01-8.61,11.01s-6.85-4.12-6.85-9.83c0-7.8,6.75-14.45,15.5-14.45s13.64,5.81,13.64,13.17-4.36,12.16-12.87,13.47ZM338.98,52.76c1.42,0,2.74-2.13,4.12-6.69.78-2.5,1.42-5.37,1.79-8.17-5.57,1.15-8.58,6.08-8.58,9.79,0,3.41,1.35,5.07,2.67,5.07Z"/>
      <path d="M379.37,39.35c-.1,1.45-.2,2.94-.37,4.39h13.03s-.03,1.22-.14,1.76c-.61,9.19-1.32,12.97-2.67,14.45-1.01,1.08-2.06,1.42-3.65,1.55-1.25.14-3.51.1-5.77,0-.07-1.15-.68-2.8-1.42-3.95,2.33.24,4.69.24,5.67.24.74,0,1.22-.07,1.62-.44.88-.74,1.49-3.68,1.96-9.83h-9.29c-1.28,5.71-4.09,10.97-10.84,14.38-.57-1.11-1.79-2.53-2.84-3.41,9.12-4.22,9.89-11.92,10.27-19.15h-9.66v-3.85h12.93v-5.5h4.15v5.5h13.34v3.85h-16.34Z"/>
    </g>
    <g>
      <rect class="cls-3" x="128.58" y="95" width="301.2" height="39.4"/>
      <g>
        <path d="M225.43,112.46c-1.29,2.34-2.94,4.91-4.46,6.57l-2.05-1.23c.81-.95,1.79-2.34,2.57-3.7h-6.54v9.14c0,1.37-.34,2.05-1.39,2.39-1.05.37-2.65.39-4.91.39-.16-.68-.58-1.71-.92-2.36,1.71.08,3.54.05,4.04.05.5-.03.63-.13.63-.53v-9.09h-10.56v-2.34h12.84c-2.13-1-4.73-2.15-6.78-2.97l1.26-1.84c1.31.53,2.89,1.13,4.44,1.79,1.44-.84,3.02-2,4.25-3.1h-13.55v-2.26h15.94l.53-.13,1.79,1.37c-1.79,1.79-4.2,3.68-6.49,5.15,1,.45,1.89.84,2.57,1.18l-.5.81h4.83l.45-.16,2,.87Z"/>
        <path d="M230.98,117.34c-.34,2.47-.95,5.02-1.76,6.7-.39-.29-1.37-.74-1.86-.92.79-1.58,1.29-3.89,1.55-6.15l2.07.37ZM235.84,110.33c1.08,1.71,2.15,3.94,2.52,5.38l-1.86.89c-.1-.42-.26-.92-.47-1.47l-1.94.13v10.82h-2.18v-10.69c-1.5.08-2.89.16-4.1.24l-.21-2.15,1.84-.05c.5-.63,1-1.31,1.52-2.05-.81-1.16-2.15-2.57-3.31-3.68l1.18-1.63.71.63c.81-1.44,1.68-3.33,2.15-4.75l2.21.79c-.95,1.79-2.05,3.86-2.99,5.28.5.52.95,1.05,1.29,1.52,1.02-1.58,1.97-3.2,2.65-4.57l2.07.89c-1.5,2.39-3.47,5.28-5.23,7.46l3.49-.13c-.34-.74-.71-1.44-1.1-2.1l1.76-.76ZM236.49,116.85c.71,1.58,1.42,3.62,1.71,4.96l-1.94.68c-.24-1.37-.95-3.44-1.6-5.04l1.84-.6ZM251.3,107.71c-.45,11.58-.79,15.68-1.89,17.02-.63.87-1.29,1.1-2.31,1.21-.89.13-2.5.1-4.04.03-.05-.71-.34-1.76-.81-2.44,1.71.13,3.28.16,3.91.16.55,0,.84-.1,1.13-.45.84-.84,1.26-4.73,1.6-14.36h-8.01c-.71,1.34-1.5,2.55-2.31,3.52-.47-.42-1.58-1.13-2.15-1.47,2-2.13,3.62-5.54,4.54-8.98l2.49.58c-.39,1.37-.89,2.73-1.44,4.02h9.3v1.18ZM243.24,119.39c-.53-1.6-1.97-4.15-3.36-6.04l1.97-.97c1.42,1.79,2.97,4.28,3.55,5.91l-2.15,1.1Z"/>
        <path d="M253.93,123.94c1.81-1.16,2.99-3.12,3.57-5.15l2.15.76c-.68,2.26-1.73,4.44-3.7,5.8l-2.02-1.42ZM258.45,117.48h-2.26v-6.57h8.53v-1.47h-7.67v-5.59h7.67v-1.89h2.42v1.89h8.06v5.59h-8.06v1.47h8.88v6.51h-2.36v-.71h-6.51v1.55h-.92c.95.66,1.79,1.39,2.31,2l-1.71,1.44c-.81-1.05-2.6-2.44-4.15-3.36l1.6-1.31.45.26v-.58h-6.28v.76ZM258.45,112.75v2.15h6.28v-2.15h-6.28ZM264.73,107.65v-2.02h-5.41v2.02h5.41ZM268.93,123.57c1.05,0,1.23-.32,1.34-2.55.5.37,1.52.74,2.18.87-.29,3.1-1,3.86-3.28,3.86h-4.62c-2.94,0-3.65-.66-3.65-2.94v-3.81h2.39v3.78c0,.68.24.79,1.52.79h4.12ZM267.14,105.63v2.02h5.65v-2.02h-5.65ZM267.14,112.75v2.15h6.51v-2.15h-6.51ZM273.31,118.63c1.89,1.52,3.89,3.7,4.75,5.41l-2.18,1.23c-.74-1.63-2.68-3.91-4.54-5.51l1.97-1.13Z"/>
        <path d="M294.3,112.28c-1.18.89-2.42,1.68-3.68,2.47h10.19v11.21h-2.52v-.71h-9.9v.81h-2.42v-8.82c-1.47.68-2.97,1.31-4.46,1.89-.29-.55-1.05-1.52-1.5-2.02,3.62-1.21,7.12-2.84,10.27-4.83h-9.61v-2.18h8.69v-2.94h-6.41v-2.13h6.41v-3.07h2.42v3.07h6.12v1.16c1.05-1.08,2.02-2.21,2.86-3.39l2.1,1.1c-1.65,2.26-3.62,4.31-5.8,6.2h6.88v2.18h-9.64ZM298.29,116.77h-9.9v2.18h9.9v-2.18ZM298.29,123.17v-2.31h-9.9v2.31h9.9ZM293.49,110.1c1.23-.92,2.36-1.92,3.44-2.94h-5.15v2.94h1.71Z"/>
        <path d="M330.07,106.5c-1.1,1-2.47,2.07-3.68,2.92,1.39,1.1,2.89,2,4.49,2.6-.55.47-1.29,1.39-1.63,2.02-2.18-1-4.15-2.42-5.88-4.17v1.29h-9.61v-1.08c-1.84,1.84-3.99,3.28-6.15,4.28-.29-.5-.97-1.34-1.44-1.76,1.65-.68,3.36-1.79,4.88-3.1-.79-.81-2.05-1.79-3.12-2.47l1.31-1.34c1.16.66,2.5,1.63,3.26,2.42.92-.97,1.73-2.05,2.36-3.15h-5.99v-2.02h7.17l.42-.11,1.58.81c-.76,2.02-1.92,3.83-3.31,5.41h7.88c-1.65-1.86-3.02-4.02-4.04-6.38l2.07-.63c.45,1.02,1,2.02,1.65,2.97,1.1-.89,2.31-1.97,3.05-2.81l1.84,1.31c-1.16,1.02-2.55,2.15-3.76,2.99.47.58,1,1.13,1.55,1.65,1.18-.89,2.47-2.02,3.28-2.94l1.81,1.29ZM324.56,120.18c-.58,1.18-1.21,2.36-1.73,3.26h7.06v2.05h-22.53v-2.05h6.75c-.26-.95-.81-2.21-1.37-3.15l1.44-.39h-2.94v-6.91h14.68v6.91h-2.52l1.16.29ZM313.61,117.92h9.82v-2.94h-9.82v2.94ZM315.08,119.89c.66,1.02,1.26,2.31,1.5,3.26l-1.05.29h5.78l-.81-.21c.55-.89,1.21-2.28,1.63-3.33h-7.04Z"/>
        <path d="M348.28,120.73c-1.6,1.23-3.33,2.49-4.86,3.54l-.63-1.1.03.21c-3.28.71-6.72,1.44-9.35,1.97l-.5-2.23c1.16-.18,2.57-.45,4.12-.74v-7.41h-3.83v-2.13h3.83v-2.39h-2.52v-1.16c-.26.24-.52.5-.81.76-.31-.5-1.05-1.23-1.5-1.55,2.28-1.94,3.91-4.52,4.75-6.56h2.07c1.55,1.34,3.47,3.28,4.39,4.6l-1.58,1.84h.21v2.07h-2.89v2.39h3.55v2.13h-3.55v7.01l3.41-.66.05.71c1.31-.81,3.07-1.97,4.86-3.15l.74,1.84ZM335.3,116.16c.5,1.55.92,3.47,1.02,4.75l-1.73.45c-.05-1.29-.45-3.28-.89-4.78l1.6-.42ZM341.84,108.39c-.74-1.13-2.15-2.89-3.47-4.15-.73,1.26-1.71,2.73-2.97,4.15h6.43ZM339.87,120.47c.39-1.23.84-3.2,1.02-4.52l1.84.47c-.45,1.52-.92,3.28-1.31,4.46l-1.55-.42ZM352.29,117.27c1.1,2.13,2.73,4.12,5.04,5.3-.47.45-1.23,1.39-1.58,2-2.28-1.42-3.89-3.73-4.96-5.99v5.04c0,1.1-.16,1.71-.87,2.07-.68.34-1.71.37-3.12.37-.05-.6-.34-1.52-.6-2.13.87.03,1.71.03,1.97.03.29-.03.37-.1.37-.39v-10.85h-5.65v-2.1h9.61v-1.87h-7.75v-1.92h7.75v-1.86h-8.27v-2.05h10.53v7.69h2.05v2.1h-6.01v.66c.31,1.13.74,2.36,1.31,3.54.95-.95,2.1-2.42,2.76-3.47l1.92,1.21c-1.05,1.23-2.28,2.55-3.26,3.44l-1.23-.84ZM344.91,113.88c1.08,1,2.28,2.42,2.81,3.39l-1.76,1.18c-.47-1-1.63-2.47-2.68-3.52l1.63-1.05Z"/>
      </g>
    </g>
    <g>
      <path d="M778.82,36.14c-1.35,1.18-2.9,2.43-4.36,3.44,1.62,1.18,3.41,2.2,5.3,2.94-.91.74-2.06,2.3-2.67,3.34-2.7-1.22-5.13-2.97-7.23-5.1v1.38h-12.43v-1.15c-2.3,2.23-4.93,4.02-7.63,5.33-.54-.88-1.59-2.26-2.4-2.94,1.96-.81,3.92-2.03,5.71-3.48-.95-.95-2.4-2.06-3.61-2.84l2.2-2.2c1.28.74,2.87,1.79,3.82,2.74.98-1.05,1.82-2.2,2.53-3.34h-6.92v-3.24h8.85l.67-.17,2.6,1.35c-.91,2.47-2.23,4.66-3.82,6.58h8.68c-1.86-2.3-3.41-4.93-4.63-7.8l3.44-1.08c.51,1.18,1.08,2.33,1.79,3.41,1.25-1.01,2.5-2.19,3.38-3.21l3.04,2.16c-1.45,1.21-3.14,2.5-4.63,3.51.51.61,1.05,1.18,1.59,1.72,1.38-1.08,2.84-2.4,3.78-3.48l2.94,2.09ZM771.69,53.7c-.71,1.38-1.38,2.7-1.96,3.68h8.48v3.31h-29.04v-3.31h8.17c-.34-1.11-.91-2.46-1.55-3.51l1.76-.44h-3.68v-9.35h19.55v9.35h-3.04l1.32.27ZM757.74,50.26h11.52v-3h-11.52v3ZM759.77,53.43c.74,1.15,1.35,2.57,1.62,3.58l-1.28.37h6.65l-.91-.2c.57-1.01,1.28-2.53,1.76-3.75h-7.83Z"/>
      <path d="M794.55,55.52c1.69-.98,3.92-2.4,6.11-3.85l1.22,3.04c-1.99,1.52-4.15,3.07-6.08,4.39l-1.11-1.92.1.98c-4.19.88-8.64,1.82-12.06,2.47l-.74-3.65c1.42-.2,3.11-.47,4.96-.78v-8.81h-4.59v-3.38h4.59v-2.46h-2.97v-1.52c-.2.2-.44.41-.64.61-.51-.78-1.62-2.09-2.4-2.6,2.84-2.4,4.79-5.57,5.84-8.17h3.31c1.99,1.65,4.46,4.05,5.64,5.81l-2.13,2.53h.3v3.34h-3.48v2.46h4.19v3.38h-4.19v8.17l4.05-.71.07.67ZM785.27,48.67c.54,1.86,1.01,4.25,1.18,5.81l-2.7.74c-.07-1.62-.54-4.05-1.05-5.91l2.57-.64ZM792.83,38.2c-.95-1.38-2.43-3.28-3.85-4.63-.84,1.45-1.92,3.04-3.28,4.63h7.12ZM790.81,53.87c.44-1.49.98-3.88,1.18-5.47l2.9.71c-.61,1.89-1.15,4.05-1.65,5.44l-2.43-.68ZM807.52,50.05c1.42,2.5,3.44,4.86,6.18,6.28-.81.71-1.99,2.26-2.57,3.31-2.4-1.55-4.22-3.98-5.54-6.52v4.42c0,1.69-.24,2.63-1.28,3.17-1.05.57-2.36.64-4.25.64-.1-1.01-.51-2.43-.95-3.48.95.07,1.96.03,2.3.03.37,0,.47-.1.47-.44v-13.24h-6.96v-3.41h11.75v-1.72h-9.39v-3.04h9.39v-1.82h-10.13v-3.31h13.84v9.89h2.5v3.41h-7.29v1.11c.34,1.15.78,2.4,1.38,3.61,1.05-1.15,2.3-2.8,3.04-4.05l3.14,1.92c-1.35,1.55-2.87,3.14-4.05,4.25l-1.59-1.05ZM797.73,45.43c1.35,1.18,2.84,2.97,3.48,4.25l-2.8,1.86c-.57-1.25-2.03-3.11-3.31-4.42l2.63-1.69Z"/>
      <path d="M821.4,45.63c-1.28-1.15-3.95-2.63-6.08-3.55l2.13-3c2.09.74,4.9,2.06,6.25,3.21l-2.3,3.34ZM825.35,50.12c-1.69,3.58-3.68,7.46-5.57,10.77l-3.51-2.5c1.69-2.57,4.12-6.82,6.04-10.77l3.04,2.5ZM843.38,36.34c-1.01,1.55-2.3,2.87-3.78,4.02,2.4.74,4.96,1.22,7.73,1.59-.88.91-1.79,2.36-2.16,3.61l-1.22-.24v15.97h-3.95v-5.71h-9.15c-.71,2.23-1.89,4.42-3.98,6.11-.71-.61-2.23-1.69-3.21-2.13,3.78-2.97,4.22-7.67,4.22-10.54v-3.68c-.68.17-1.38.34-2.09.47-.34-.91-1.28-2.6-1.89-3.38,2.94-.41,5.77-1.01,8.24-1.89-1.52-1.15-2.94-2.5-4.22-4.22h-2.63v-2.67l-2.06,2.94c-1.22-1.18-3.85-2.74-5.98-3.65l2.19-2.97c1.92.74,4.42,2.03,5.84,3.11v-.24h8.48v-3h4.15v3h8.61v3.48h-3.14ZM843.52,45.23c-2.77-.61-5.4-1.35-7.8-2.5-2.09.98-4.39,1.76-6.82,2.4h2.84v1.49h8.27v-1.38h3.51ZM840.01,52.28v-2.33h-8.27c-.03.71-.07,1.52-.2,2.33h8.48ZM832.54,36.34c1.08.98,2.19,1.79,3.38,2.43,1.15-.71,2.13-1.52,2.94-2.43h-6.31Z"/>
      <path d="M858.07,33.04c1.92,0,5.5-.17,7.09-.3.84-.03,1.72-.24,2.3-.47l2.7,2.09c-.47.51-.88.95-1.15,1.42-.88,1.45-2.16,4.39-3.38,7.26,2.63.41,5.13,1.22,7.33,2.16.03-.41.07-.78.1-1.15.1-1.32.1-2.67,0-3.68l4.42.51c-.13,2.26-.3,4.36-.64,6.25,1.42.81,2.63,1.59,3.61,2.26l-1.96,4.69c-.88-.81-1.86-1.59-2.9-2.36-1.49,3.82-4.05,6.79-8.58,9.15l-3.58-2.94c5.1-2.19,7.46-5.4,8.58-8.48-2.4-1.32-5.1-2.33-8-2.74-1.21,2.87-2.63,6.25-3.82,8.1-1.35,2.03-2.97,2.97-5.27,2.97-2.97,0-5.2-2.06-5.2-5.47,0-5.23,4.76-9.22,11.55-9.52.95-2.23,1.92-4.52,2.7-6.11-1.35.07-4.25.17-5.81.27-.67.03-1.86.14-2.73.27l-.17-4.36c.91.1,2.06.17,2.8.17ZM855.1,53.36c.67,0,1.15-.34,1.76-1.18.88-1.25,1.79-3.38,2.74-5.5-3.78.57-5.91,2.87-5.91,5,0,1.11.64,1.69,1.42,1.69Z"/>
      <path d="M900.25,60.02l-2.53-4.02c1.28-.13,2.23-.34,3.14-.54,4.32-1.01,7.7-4.12,7.7-9.05,0-4.66-2.53-8.14-7.09-8.91-.47,2.87-1.05,5.98-2.03,9.15-2.03,6.82-4.93,11.01-8.61,11.01s-6.85-4.12-6.85-9.83c0-7.8,6.75-14.45,15.5-14.45s13.64,5.81,13.64,13.17-4.36,12.16-12.87,13.47ZM890.97,52.45c1.42,0,2.73-2.13,4.12-6.69.78-2.5,1.42-5.37,1.79-8.17-5.57,1.15-8.58,6.08-8.58,9.79,0,3.41,1.35,5.07,2.67,5.07Z"/>
      <path d="M931.35,39.05c-.1,1.45-.2,2.94-.37,4.39h13.03s-.03,1.22-.14,1.76c-.61,9.19-1.32,12.97-2.67,14.45-1.01,1.08-2.06,1.42-3.65,1.55-1.25.14-3.51.1-5.77,0-.07-1.15-.67-2.8-1.42-3.95,2.33.24,4.69.24,5.67.24.74,0,1.22-.07,1.62-.44.88-.74,1.49-3.68,1.96-9.83h-9.29c-1.28,5.71-4.09,10.97-10.84,14.38-.57-1.11-1.79-2.53-2.84-3.41,9.12-4.22,9.89-11.92,10.26-19.15h-9.66v-3.85h12.93v-5.5h4.15v5.5h13.34v3.85h-16.34Z"/>
    </g>
    <g>
      <g>
        <rect class="cls-5" x="697.45" y="95" width="301.2" height="39.4"/>
        <path class="cls-6" d="M999.14,134.89h-302.2v-40.4h302.2v40.4ZM697.95,133.89h300.2v-38.4h-300.2v38.4Z"/>
      </g>
      <g>
        <path d="M770.28,124.18c1.81-1.16,2.99-3.12,3.57-5.15l2.15.76c-.68,2.26-1.73,4.44-3.7,5.8l-2.02-1.42ZM774.79,117.72h-2.26v-6.57h8.54v-1.47h-7.67v-5.59h7.67v-1.89h2.42v1.89h8.06v5.59h-8.06v1.47h8.88v6.51h-2.36v-.71h-6.51v1.55h-.92c.95.66,1.79,1.39,2.31,2l-1.71,1.44c-.81-1.05-2.6-2.44-4.15-3.36l1.6-1.31.45.26v-.58h-6.28v.76ZM774.79,112.99v2.15h6.28v-2.15h-6.28ZM781.07,107.9v-2.02h-5.41v2.02h5.41ZM785.27,123.81c1.05,0,1.23-.32,1.34-2.55.5.37,1.52.74,2.18.87-.29,3.1-1,3.86-3.28,3.86h-4.62c-2.94,0-3.65-.66-3.65-2.94v-3.81h2.39v3.78c0,.68.24.79,1.52.79h4.12ZM783.48,105.88v2.02h5.65v-2.02h-5.65ZM783.48,112.99v2.15h6.51v-2.15h-6.51ZM789.66,118.88c1.89,1.52,3.89,3.7,4.75,5.41l-2.18,1.23c-.74-1.63-2.68-3.91-4.54-5.51l1.97-1.13Z"/>
        <path d="M810.64,112.52c-1.18.89-2.42,1.68-3.68,2.47h10.19v11.21h-2.52v-.71h-9.9v.81h-2.42v-8.82c-1.47.68-2.97,1.31-4.46,1.89-.29-.55-1.05-1.52-1.5-2.02,3.62-1.21,7.12-2.84,10.27-4.83h-9.61v-2.18h8.69v-2.94h-6.41v-2.13h6.41v-3.07h2.42v3.07h6.12v1.16c1.05-1.08,2.02-2.21,2.86-3.39l2.1,1.1c-1.65,2.26-3.62,4.31-5.8,6.2h6.88v2.18h-9.64ZM814.63,117.01h-9.9v2.18h9.9v-2.18ZM814.63,123.42v-2.31h-9.9v2.31h9.9ZM809.83,110.34c1.23-.92,2.36-1.92,3.44-2.94h-5.15v2.94h1.71Z"/>
        <path d="M842.47,107.16c-.84,2.18-2.1,4.99-3.78,7.46,2.34,1.92,4.59,3.97,6.41,5.93l-2.1,2.31c-1.89-2.18-3.86-4.04-6.04-5.94-2.39,2.92-5.54,5.91-10.06,8.33l-2.31-2.08c4.46-2.13,7.64-4.86,10.22-8.04-1.92-1.55-4.65-3.57-7.25-5.17l1.73-2.1c2.21,1.39,5.12,3.41,7.22,5.02,1.55-2.28,2.52-4.62,3.28-6.78.21-.58.45-1.52.58-2.15l3.05,1.08c-.29.53-.74,1.55-.95,2.13Z"/>
        <path d="M853.38,119.9h15.44c.84,0,1.79-.05,2.63-.16v3.18c-.87-.08-1.89-.13-2.63-.13h-15.44c-.97,0-2.05.05-2.99.13v-3.18c.97.08,2.02.16,2.99.16ZM855.42,106.95h11.08c1,0,2.02-.05,2.73-.13v2.99c-.74-.05-1.84-.08-2.73-.08h-11.06c-.95,0-1.97.03-2.81.08v-2.99c.87.08,1.92.13,2.78.13Z"/>
        <path d="M893.69,112.68c-.21,1.68-.95,6.59-1.31,9.03h2.21c.6,0,1.68-.05,2.28-.11v2.68c-.5-.03-1.6-.05-2.23-.05h-14.15c-.87,0-1.47.03-2.36.05v-2.71c.68.08,1.52.13,2.36.13h9.09c.37-2.23,1.05-6.75,1.13-8.22h-7.8c-.79,0-1.63.05-2.34.08v-2.73c.66.08,1.65.13,2.31.13h7.46c.47,0,1.31-.08,1.58-.21l2,.97c-.08.29-.16.68-.21.95Z"/>
        <path d="M907.03,112.68h14.29c1.26,0,2.28-.1,2.94-.16v3.26c-.58-.03-1.79-.13-2.94-.13h-14.29c-1.44,0-3.02.05-3.91.13v-3.26c.87.05,2.5.16,3.91.16Z"/>
      </g>
    </g>
    <g>
      <g>
        <rect class="cls-5" x="697.45" y="180.03" width="301.2" height="39.4"/>
        <path class="cls-6" d="M999.14,219.93h-302.2v-40.4h302.2v40.4ZM697.95,218.93h300.2v-38.4h-300.2v38.4Z"/>
      </g>
      <g>
        <path d="M801.66,190.4h14.26c.6,0,1.55,0,2.42-.03-.05.71-.05,1.52-.05,2.26v12.89c0,.92.05,3.18.05,3.39h-2.86c.03-.13.03-.74.05-1.47h-13.6c0,.71,0,1.34.03,1.47h-2.86c.03-.24.08-2.34.08-3.39v-12.89c0-.68,0-1.6-.05-2.29,1.05.05,1.89.05,2.55.05ZM801.9,204.81h13.63v-11.79h-13.63v11.79Z"/>
        <path d="M833.99,191.13c-.13.24-.24.45-.39.68h6.33c.74,0,1.47-.11,1.97-.26l2.15,1.31c-.26.42-.55,1.08-.74,1.6-.71,2.52-2.26,6.04-4.62,8.93-2.42,2.97-5.59,5.38-10.5,7.27l-2.44-2.21c5.07-1.5,8.19-3.83,10.53-6.54,1.94-2.23,3.52-5.54,3.99-7.75h-8.22c-1.65,2.26-3.91,4.57-6.64,6.41l-2.31-1.71c4.57-2.76,7.01-6.38,8.25-8.69.32-.55.76-1.6.97-2.36l3.05,1c-.52.79-1.08,1.79-1.37,2.31ZM844.15,191l-1.73.74c-.53-1.05-1.37-2.63-2.07-3.62l1.68-.71c.66.95,1.6,2.57,2.13,3.6ZM847.17,189.85l-1.71.76c-.55-1.13-1.42-2.63-2.15-3.62l1.68-.71c.71.97,1.71,2.63,2.18,3.57Z"/>
        <path d="M861.49,194c2.73-1.68,5.51-4.12,7.3-6.25l2.21,2.1c-2,2.02-4.46,4.04-7.06,5.75v10.9c0,1.08.05,2.52.18,3.1h-3.26c.08-.58.16-2.02.16-3.1v-9.14c-2.76,1.5-6.22,3.02-9.69,4.07l-1.29-2.6c4.6-1.23,8.53-3.02,11.45-4.83Z"/>
        <path d="M888.04,202.95c4.23-2.6,7.51-6.54,9.11-9.9l1.6,2.86c-1.89,3.41-5.12,6.99-9.22,9.51-2.65,1.63-5.99,3.18-10.06,3.91l-1.76-2.71c4.39-.66,7.8-2.13,10.32-3.68ZM887.15,194.55l-2.08,2.13c-1.37-1.39-4.62-4.25-6.57-5.57l1.92-2.05c1.84,1.23,5.25,3.97,6.72,5.49Z"/>
      </g>
    </g>
    <g>
      <g>
        <rect class="cls-5" x="697.45" y="263.75" width="301.2" height="39.4"/>
        <path class="cls-6" d="M999.14,303.65h-302.2v-40.4h302.2v40.4ZM697.95,302.65h300.2v-38.4h-300.2v38.4Z"/>
      </g>
      <g>
        <path d="M846.83,281.47c-1.29,2.34-2.94,4.91-4.46,6.57l-2.05-1.23c.81-.95,1.79-2.34,2.57-3.7h-6.54v9.14c0,1.37-.34,2.05-1.39,2.39-1.05.37-2.65.39-4.91.39-.16-.68-.58-1.71-.92-2.36,1.71.08,3.55.05,4.04.05.5-.03.63-.13.63-.53v-9.09h-10.56v-2.34h12.84c-2.13-1-4.73-2.15-6.77-2.97l1.26-1.84c1.31.53,2.89,1.13,4.44,1.79,1.44-.84,3.02-2,4.25-3.1h-13.55v-2.26h15.94l.53-.13,1.79,1.37c-1.79,1.79-4.2,3.68-6.49,5.15,1,.45,1.89.84,2.57,1.18l-.5.81h4.83l.45-.16,2,.87Z"/>
        <path d="M852.38,286.36c-.34,2.47-.95,5.02-1.76,6.7-.39-.29-1.37-.74-1.86-.92.79-1.58,1.29-3.89,1.55-6.15l2.07.37ZM857.24,279.34c1.08,1.71,2.15,3.94,2.52,5.38l-1.86.89c-.11-.42-.26-.92-.47-1.47l-1.94.13v10.82h-2.18v-10.69c-1.5.08-2.89.16-4.1.24l-.21-2.15,1.84-.05c.5-.63,1-1.31,1.52-2.05-.81-1.16-2.15-2.57-3.31-3.68l1.18-1.63.71.63c.81-1.44,1.68-3.33,2.15-4.75l2.21.79c-.95,1.79-2.05,3.86-2.99,5.28.5.53.95,1.05,1.29,1.52,1.02-1.58,1.97-3.2,2.65-4.57l2.07.89c-1.5,2.39-3.47,5.28-5.23,7.46l3.49-.13c-.34-.74-.71-1.44-1.1-2.1l1.76-.76ZM857.89,285.86c.71,1.58,1.42,3.62,1.71,4.96l-1.94.68c-.24-1.37-.95-3.44-1.6-5.04l1.84-.6ZM872.7,276.72c-.45,11.58-.79,15.68-1.89,17.02-.63.87-1.29,1.1-2.31,1.21-.89.13-2.5.1-4.04.03-.05-.71-.34-1.76-.81-2.44,1.71.13,3.28.16,3.91.16.55,0,.84-.1,1.13-.45.84-.84,1.26-4.73,1.6-14.36h-8.01c-.71,1.34-1.5,2.55-2.31,3.52-.47-.42-1.58-1.13-2.15-1.47,2-2.13,3.62-5.54,4.54-8.98l2.5.58c-.39,1.37-.89,2.73-1.44,4.02h9.3v1.18ZM864.64,288.4c-.53-1.6-1.97-4.15-3.36-6.04l1.97-.97c1.42,1.79,2.97,4.28,3.54,5.91l-2.15,1.1Z"/>
      </g>
    </g>
    <g>
      <rect class="cls-7" x="459.5" y="108.82" width="203.2" height="7.74"/>
      <polygon class="cls-7" points="669.47 112.7 648.18 100.4 648.18 124.99 669.47 112.7"/>
    </g>
    <g>
      <rect class="cls-7" x="836.36" y="153.47" width="23.37" height="4.83" transform="translate(1003.93 -692.15) rotate(90)"/>
      <polygon class="cls-7" points="848.04 171.8 855.72 158.51 840.37 158.51 848.04 171.8"/>
    </g>
    <g>
      <rect class="cls-7" x="836.36" y="238.06" width="23.37" height="4.83" transform="translate(1088.52 -607.57) rotate(90)"/>
      <polygon class="cls-7" points="848.04 256.39 855.72 243.1 840.37 243.1 848.04 256.39"/>
    </g>
  </g>
</svg>