<?xml version="1.0" encoding="UTF-8"?><svg id="_レイヤー_1" xmlns="http://www.w3.org/2000/svg" width="33.841" height="33.841" viewBox="0 0 33.841 33.841"><defs><style>.cls-1{fill:#214a7a;}</style></defs><path class="cls-1" d="M29.276,7.826s-.003-.005-.005-.007l-2.932-2.938s-.004-.002-.006-.004l-1.703-1.707c-.128-.129-.336-.128-.464,0-.129.128-.129.336,0,.464l1.476,1.48-2.262,2.274-1.058-1.063c-.008-.008-.018-.011-.027-.018l-2.331-2.34c-.128-.129-.336-.129-.464,0-.128.128-.129.336,0,.464l2.123,2.131-15.099,15.19c-.128.128-.127.335,0,.463l.577.58-.56,2.261c-.028.111.005.229.086.311l.871.875-4.841,4.841c-.128.128-.128.336,0,.464.064.064.148.096.232.096s.168-.032.232-.096l4.84-4.84.921.925c.063.063.147.096.233.096.027,0,.054-.003.08-.01l2.246-.565.577.579c.062.062.146.096.233.096s.171-.035.233-.097l15.098-15.189,2.367,2.375c.064.064.148.096.232.096.084,0,.168-.032.232-.096.128-.128.129-.336,0-.464l-2.582-2.592c-.005-.006-.008-.014-.013-.02l-1.045-1.049,2.265-2.277,1.682,1.686c.064.064.148.096.232.096s.168-.032.232-.096c.129-.128.129-.336,0-.464l-1.909-1.913ZM9.216,27.036l-1.002-1.006c-.006-.008-.009-.017-.016-.025-.007-.007-.017-.01-.024-.016l-.951-.955.42-1.695,3.26,3.273-1.686.424ZM27.118,12.077l-14.868,14.957-.474-.476s0,0,0-.001l-4.079-4.095h0l-.477-.48,4.154-4.18,1.396,1.396c.064.064.148.096.232.096s.168-.032.232-.096c.128-.128.128-.336,0-.464l-1.397-1.397,2.393-2.408,1.405,1.404c.064.064.148.096.232.096s.168-.032.232-.096c.128-.128.128-.336,0-.464l-1.406-1.406,2.394-2.408,1.413,1.413c.064.064.148.096.232.096s.168-.032.232-.096c.128-.128.128-.336,0-.464l-1.415-1.414,4.537-4.564,1.057,1.06s0,.002.002.002l.547.548,3.428,3.44ZM26.308,10.33l-2.468-2.473,2.268-2.279,2.468,2.473-2.268,2.279Z"/></svg>